# xmcd CD database file
#
# Track frame offsets:
#	150
#	10052
#	23070
#	38435
#	51488
#	67376
#	77850
#	87311
#	99497
#	108804
#	122714
#	133296
#	146984
#	164676
#	180096
#	192445
#	207206
#	221501
#	232696
#	244962
#	254223
#
# Disc length: 3542 seconds
#
# Revision: 0
# Processed by: cddbd v1.5.2PL0 Copyright (c) Steve Scherf et al.
# Submitted via: CDex 1.70beta2
#
DISCID=320dd415
DTITLE=Hráči - 30 let
DYEAR=1900
DGENRE=Country
TTITLE0=Hraj jen dál
TTITLE1=Bílá místa
TTITLE2=jak zlý sen
TTITLE3=Čumulangma
TTITLE4=Období dešťů
TTITLE5=je to tak
TTITLE6=rudá réva
TTITLE7=Malíř
TTITLE8=kde jsem jářku nechal hlavu
TTITLE9=Starý dům s pavlačí
TTITLE10=Kohoutí píseň
TTITLE11=Rekordman
TTITLE12=Tulácká bajka
TTITLE13=Večerní blues
TTITLE14=Tu a tam
TTITLE15=Proč
TTITLE16=Kráter
TTITLE17=Báječní muži
TTITLE18=Píseň o řece
TTITLE19=Vagón blues
TTITLE20=Jéňa chodec
EXTD=
EXTT0=
EXTT1=
EXTT2=
EXTT3=
EXTT4=
EXTT5=
EXTT6=
EXTT7=
EXTT8=
EXTT9=
EXTT10=
EXTT11=
EXTT12=
EXTT13=
EXTT14=
EXTT15=
EXTT16=
EXTT17=
EXTT18=
EXTT19=
EXTT20=
PLAYORDER=
